<svg width="310" height="194" viewBox="0 0 310 194" fill="none" xmlns="http://www.w3.org/2000/svg">
  <g id="tape">
    <path id="tape-background"
      d="M293.976 194H16.0237C7.17299 194 0 187.802 0 180.152V13.8479C0 6.19897 7.17299 0 16.0237 0H293.982C302.828 0 310 6.19897 310 13.8479V180.157C310 187.802 302.827 194 293.976 194Z"
      fill="#28384C" />
    <path id="center-background"
      d="M289 148H21V31.9193C21 24.2309 28.1933 18 37.0692 18H272.936C281.807 18 288.999 24.2309 288.999 31.9193V148H289Z"
      fill="#546B7F" />
    <path id="Vector"
      d="M224.365 130L85.6346 130C57.6673 130 35 108.96 35 83C35 57.0402 57.6673 36 85.6346 36H224.365C252.333 36 275 57.0402 275 83C275 108.959 252.333 130 224.365 130Z"
      fill="#3B4E63" />
    <g id="circles">
      <g id="left-circle">
        <path id="Vector_2"
          d="M62.9324 88.9875H50.9276C47.6141 88.9875 44.9248 86.2982 44.9248 82.9847C44.9248 79.6712 47.6141 76.982 50.9276 76.982H62.9324C66.2459 76.982 68.9352 79.6712 68.9352 82.9847C68.9352 86.2982 66.2459 88.9875 62.9324 88.9875Z"
          fill="#AFB6BB" />
        <path id="Vector_3"
          d="M110.953 88.9875H98.9477C95.6342 88.9875 92.9449 86.2982 92.9449 82.9847C92.9449 79.6712 95.6342 76.982 98.9477 76.982H110.953C114.266 76.982 116.955 79.6712 116.955 82.9847C116.955 86.2982 114.266 88.9875 110.953 88.9875Z"
          fill="#AFB6BB" />
        <path id="Vector_4"
          d="M80.9401 119C77.6266 119 74.9373 116.311 74.9373 112.997V100.992C74.9373 97.6789 77.6266 94.9896 80.9401 94.9896C84.2535 94.9896 86.9428 97.6789 86.9428 100.992V112.997C86.9428 116.311 84.2535 119 80.9401 119Z"
          fill="#AFB6BB" />
        <path id="Vector_5"
          d="M80.9401 70.9799C77.6266 70.9799 74.9373 68.2906 74.9373 64.9771V52.9722C74.9373 49.6588 77.6266 46.9695 80.9401 46.9695C84.2535 46.9695 86.9428 49.6588 86.9428 52.9722V64.9771C86.9428 68.2906 84.2535 70.9799 80.9401 70.9799Z"
          fill="#AFB6BB" />
        <path id="Vector_6"
          d="M80.9401 119C61.0836 119 44.9248 102.847 44.9248 82.9847C44.9248 63.1221 61.0836 46.9695 80.9401 46.9695C100.797 46.9695 116.955 63.1221 116.955 82.9847C116.955 102.847 100.797 119 80.9401 119ZM80.9401 58.975C67.6983 58.975 56.9303 69.7437 56.9303 82.9847C56.9303 96.2258 67.699 106.994 80.9401 106.994C94.1811 106.994 104.95 96.2258 104.95 82.9847C104.95 69.7437 94.1818 58.975 80.9401 58.975Z"
          fill="#E7ECED" />
      </g>
      <g id="right-circle">
        <path id="Vector_7"
          d="M211.462 88.9875H199.457C196.143 88.9875 193.454 86.2982 193.454 82.9847C193.454 79.6712 196.143 76.982 199.457 76.982H211.462C214.775 76.982 217.464 79.6712 217.464 82.9847C217.464 86.2982 214.775 88.9875 211.462 88.9875Z"
          fill="#AFB6BB" />
        <path id="Vector_8"
          d="M259.482 88.9875H247.477C244.163 88.9875 241.474 86.2982 241.474 82.9847C241.474 79.6712 244.163 76.982 247.477 76.982H259.482C262.795 76.982 265.485 79.6712 265.485 82.9847C265.485 86.2982 262.795 88.9875 259.482 88.9875Z"
          fill="#AFB6BB" />
        <path id="Vector_9"
          d="M229.469 119C226.156 119 223.466 116.311 223.466 112.997V100.992C223.466 97.6789 226.156 94.9896 229.469 94.9896C232.783 94.9896 235.472 97.6789 235.472 100.992V112.997C235.471 116.311 232.783 119 229.469 119Z"
          fill="#AFB6BB" />
        <path id="Vector_10"
          d="M229.469 70.9799C226.156 70.9799 223.466 68.2906 223.466 64.9771V52.9722C223.466 49.6588 226.156 46.9695 229.469 46.9695C232.783 46.9695 235.472 49.6588 235.472 52.9722V64.9771C235.471 68.2906 232.783 70.9799 229.469 70.9799Z"
          fill="#AFB6BB" />
        <path id="Vector_11"
          d="M229.469 119C209.607 119 193.454 102.847 193.454 82.9847C193.454 63.1222 209.607 46.9695 229.469 46.9695C249.331 46.9695 265.484 63.1222 265.484 82.9847C265.484 102.847 249.331 119 229.469 119ZM229.469 58.975C216.227 58.975 205.459 69.7437 205.459 82.9847C205.459 96.2258 216.228 106.994 229.469 106.994C242.711 106.994 253.479 96.2258 253.479 82.9847C253.479 69.7437 242.711 58.975 229.469 58.975Z"
          fill="#E7ECED" />
      </g>
    </g>
    <path id="Vector_12" d="M238.262 194H71.7384L90.2413 147.744H219.759L238.262 194Z"
      fill="#3B4E63" />
    <g id="Group">
      <path id="Vector_13"
        d="M122.621 175.498H104.118C101.565 175.498 99.4924 173.425 99.4924 170.872C99.4924 168.318 101.565 166.246 104.118 166.246H122.621C125.174 166.246 127.246 168.318 127.246 170.872C127.246 173.425 125.174 175.498 122.621 175.498Z"
        fill="#546B7F" />
      <path id="Vector_14"
        d="M205.882 175.498H187.379C184.826 175.498 182.754 173.425 182.754 170.872C182.754 168.318 184.826 166.246 187.379 166.246H205.882C208.435 166.246 210.508 168.318 210.508 170.872C210.508 173.425 208.435 175.498 205.882 175.498Z"
        fill="#546B7F" />
      <path id="Vector_15"
        d="M164.251 175.498H145.749C143.195 175.498 141.123 173.425 141.123 170.872C141.123 168.318 143.195 166.246 145.749 166.246H164.251C166.805 166.246 168.877 168.318 168.877 170.872C168.877 173.425 166.805 175.498 164.251 175.498Z"
        fill="#546B7F" />
    </g>
  </g>
</svg>